<svg xmlns="http://www.w3.org/2000/svg" xmlns:xlink="http://www.w3.org/1999/xlink" width="300" zoomAndPan="magnify" viewBox="0 0 224.87999 225" height="300" preserveAspectRatio="xMidYMid meet" version="1.0"><defs><clipPath id="e725417d09"><path d="M 0 0.0585938 L 224.761719 0.0585938 L 224.761719 224.9375 L 0 224.9375 Z M 0 0.0585938 " clip-rule="nonzero"/></clipPath><clipPath id="d803822730"><path d="M 84.949219 81.878906 L 139.667969 81.878906 L 139.667969 128.355469 L 84.949219 128.355469 Z M 84.949219 81.878906 " clip-rule="nonzero"/></clipPath><clipPath id="421764cdfb"><path d="M 139.925781 102.628906 L 139.925781 101.539062 L 138.839844 101.417969 C 138.546875 101.390625 135.421875 101.074219 131.371094 101.683594 L 131.371094 93.722656 L 129.996094 93.898438 C 127.726562 94.191406 125.621094 94.628906 123.675781 95.1875 C 121.5625 90.699219 118.0625 86.460938 113.203125 82.523438 L 112.4375 81.902344 L 111.671875 82.523438 C 106.808594 86.460938 103.3125 90.699219 101.195312 95.1875 C 99.25 94.628906 97.144531 94.191406 94.875 93.898438 L 93.503906 93.722656 L 93.503906 101.683594 C 89.453125 101.074219 86.324219 101.390625 86.035156 101.417969 L 84.949219 101.539062 L 84.949219 102.628906 C 84.949219 111.585938 87.355469 118.398438 92.105469 122.894531 C 96.035156 126.609375 101.441406 128.550781 107.816406 128.550781 C 108.320312 128.550781 108.828125 128.535156 109.347656 128.511719 L 111.09375 128.511719 L 110.746094 127.011719 C 109.882812 123.273438 108.453125 114.242188 112.4375 106.882812 C 116.421875 114.242188 114.988281 123.273438 114.125 127.011719 L 113.78125 128.511719 L 115.527344 128.511719 C 116.042969 128.535156 116.554688 128.550781 117.054688 128.550781 C 123.433594 128.550781 128.839844 126.609375 132.769531 122.894531 C 137.519531 118.398438 139.925781 111.585938 139.925781 102.628906 Z M 128.941406 96.507812 L 128.941406 102.148438 C 127.957031 102.375 126.941406 102.660156 125.921875 103.023438 C 125.707031 101.132812 125.269531 99.269531 124.613281 97.449219 C 125.96875 97.070312 127.40625 96.753906 128.941406 96.507812 Z M 95.933594 96.507812 C 97.464844 96.753906 98.90625 97.070312 100.261719 97.453125 C 99.605469 99.273438 99.167969 101.132812 98.949219 103.023438 C 97.933594 102.664062 96.917969 102.378906 95.933594 102.148438 Z M 93.777344 121.125 C 89.726562 117.300781 87.585938 111.464844 87.394531 103.773438 C 88.65625 103.734375 90.894531 103.757812 93.503906 104.191406 L 93.503906 111.410156 C 93.503906 116.929688 98.972656 122.449219 104.359375 125.894531 C 100.800781 125.425781 96.9375 124.121094 93.777344 121.125 Z M 95.933594 111.410156 L 95.933594 104.703125 C 96.875 104.945312 97.839844 105.246094 98.796875 105.617188 C 98.75 112.921875 101.902344 119.152344 104.675781 123.203125 C 99.917969 119.914062 95.933594 115.265625 95.933594 111.410156 Z M 107.609375 123.089844 C 105.027344 119.613281 101.558594 113.6875 101.25 106.746094 C 103.746094 108.089844 106.089844 110.027344 107.855469 112.8125 C 107.171875 116.535156 107.273438 120.171875 107.609375 123.089844 Z M 108.625 109.699219 C 106.515625 107.066406 103.941406 105.246094 101.300781 103.992188 C 101.460938 102.023438 101.886719 100.09375 102.578125 98.199219 C 106.28125 99.558594 109.207031 101.503906 111.324219 104.027344 C 110.113281 105.832031 109.238281 107.753906 108.625 109.699219 Z M 112.4375 101.621094 C 110.152344 99.203125 107.175781 97.3125 103.53125 95.957031 C 105.390625 92.128906 108.363281 88.484375 112.4375 85.042969 C 116.511719 88.484375 119.484375 92.128906 121.339844 95.957031 C 117.699219 97.3125 114.722656 99.199219 112.4375 101.621094 Z M 113.550781 104.027344 C 115.667969 101.503906 118.59375 99.558594 122.292969 98.199219 C 122.988281 100.089844 123.414062 102.023438 123.574219 103.992188 C 120.929688 105.246094 118.359375 107.066406 116.246094 109.699219 C 115.632812 107.753906 114.761719 105.832031 113.550781 104.027344 Z M 117.015625 112.8125 C 118.785156 110.027344 121.128906 108.089844 123.621094 106.746094 C 123.316406 113.691406 119.84375 119.613281 117.261719 123.089844 C 117.601562 120.171875 117.703125 116.535156 117.015625 112.8125 Z M 126.074219 105.617188 C 127.035156 105.246094 127.996094 104.945312 128.941406 104.703125 L 128.941406 111.410156 C 128.941406 115.265625 124.953125 119.914062 120.199219 123.203125 C 122.96875 119.152344 126.121094 112.921875 126.074219 105.617188 Z M 131.097656 121.125 C 127.933594 124.121094 124.070312 125.425781 120.511719 125.894531 C 125.902344 122.449219 131.371094 116.933594 131.371094 111.410156 L 131.371094 104.191406 C 133.976562 103.757812 136.21875 103.734375 137.476562 103.773438 C 137.289062 111.464844 135.144531 117.300781 131.097656 121.125 Z M 131.097656 121.125 " clip-rule="nonzero"/></clipPath><linearGradient x1="3025" gradientTransform="matrix(0.100472, 0, 0, 0.100472, -191.492218, -168.037548)" y1="2487.629779" x2="3025" gradientUnits="userSpaceOnUse" y2="2949.983964" id="6633661308"><stop stop-opacity="1" stop-color="rgb(36.079407%, 88.238525%, 90.19928%)" offset="0"/><stop stop-opacity="1" stop-color="rgb(36.079407%, 88.238525%, 90.19928%)" offset="0.125"/><stop stop-opacity="1" stop-color="rgb(36.079407%, 88.238525%, 90.19928%)" offset="0.15625"/><stop stop-opacity="1" stop-color="rgb(36.044312%, 88.13324%, 90.129089%)" offset="0.164062"/><stop stop-opacity="1" stop-color="rgb(35.955811%, 87.861633%, 89.94751%)" offset="0.171875"/><stop stop-opacity="1" stop-color="rgb(35.845947%, 87.527466%, 89.723206%)" offset="0.179687"/><stop stop-opacity="1" stop-color="rgb(35.73761%, 87.193298%, 89.500427%)" offset="0.1875"/><stop stop-opacity="1" stop-color="rgb(35.627747%, 86.857605%, 89.276123%)" offset="0.195312"/><stop stop-opacity="1" stop-color="rgb(35.517883%, 86.523438%, 89.053345%)" offset="0.203125"/><stop stop-opacity="1" stop-color="rgb(35.40802%, 86.18927%, 88.829041%)" offset="0.210937"/><stop stop-opacity="1" stop-color="rgb(35.299683%, 85.855103%, 88.606262%)" offset="0.21875"/><stop stop-opacity="1" stop-color="rgb(35.189819%, 85.520935%, 88.381958%)" offset="0.226562"/><stop stop-opacity="1" stop-color="rgb(35.079956%, 85.185242%, 88.15918%)" offset="0.234375"/><stop stop-opacity="1" stop-color="rgb(34.971619%, 84.851074%, 87.936401%)" offset="0.242187"/><stop stop-opacity="1" stop-color="rgb(34.861755%, 84.516907%, 87.712097%)" offset="0.25"/><stop stop-opacity="1" stop-color="rgb(34.751892%, 84.182739%, 87.489319%)" offset="0.257812"/><stop stop-opacity="1" stop-color="rgb(34.643555%, 83.848572%, 87.265015%)" offset="0.265625"/><stop stop-opacity="1" stop-color="rgb(34.533691%, 83.512878%, 87.042236%)" offset="0.273438"/><stop stop-opacity="1" stop-color="rgb(34.423828%, 83.178711%, 86.817932%)" offset="0.28125"/><stop stop-opacity="1" stop-color="rgb(34.315491%, 82.844543%, 86.595154%)" offset="0.289062"/><stop stop-opacity="1" stop-color="rgb(34.205627%, 82.510376%, 86.37085%)" offset="0.296875"/><stop stop-opacity="1" stop-color="rgb(34.095764%, 82.176208%, 86.148071%)" offset="0.304688"/><stop stop-opacity="1" stop-color="rgb(33.987427%, 81.840515%, 85.923767%)" offset="0.3125"/><stop stop-opacity="1" stop-color="rgb(33.877563%, 81.506348%, 85.700989%)" offset="0.320312"/><stop stop-opacity="1" stop-color="rgb(33.7677%, 81.17218%, 85.476685%)" offset="0.328125"/><stop stop-opacity="1" stop-color="rgb(33.657837%, 80.838013%, 85.253906%)" offset="0.335938"/><stop stop-opacity="1" stop-color="rgb(33.5495%, 80.503845%, 85.031128%)" offset="0.34375"/><stop stop-opacity="1" stop-color="rgb(33.439636%, 80.168152%, 84.806824%)" offset="0.351562"/><stop stop-opacity="1" stop-color="rgb(33.329773%, 79.833984%, 84.584045%)" offset="0.359375"/><stop stop-opacity="1" stop-color="rgb(33.221436%, 79.499817%, 84.359741%)" offset="0.367187"/><stop stop-opacity="1" stop-color="rgb(33.111572%, 79.165649%, 84.136963%)" offset="0.375"/><stop stop-opacity="1" stop-color="rgb(33.001709%, 78.831482%, 83.912659%)" offset="0.382812"/><stop stop-opacity="1" stop-color="rgb(32.893372%, 78.497314%, 83.68988%)" offset="0.390625"/><stop stop-opacity="1" stop-color="rgb(32.783508%, 78.161621%, 83.465576%)" offset="0.398437"/><stop stop-opacity="1" stop-color="rgb(32.673645%, 77.827454%, 83.242798%)" offset="0.40625"/><stop stop-opacity="1" stop-color="rgb(32.565308%, 77.493286%, 83.018494%)" offset="0.414062"/><stop stop-opacity="1" stop-color="rgb(32.455444%, 77.159119%, 82.795715%)" offset="0.421875"/><stop stop-opacity="1" stop-color="rgb(32.345581%, 76.824951%, 82.571411%)" offset="0.429688"/><stop stop-opacity="1" stop-color="rgb(32.235718%, 76.489258%, 82.348633%)" offset="0.4375"/><stop stop-opacity="1" stop-color="rgb(32.12738%, 76.15509%, 82.124329%)" offset="0.445312"/><stop stop-opacity="1" stop-color="rgb(32.017517%, 75.820923%, 81.90155%)" offset="0.453125"/><stop stop-opacity="1" stop-color="rgb(31.907654%, 75.486755%, 81.678772%)" offset="0.460938"/><stop stop-opacity="1" stop-color="rgb(31.799316%, 75.152588%, 81.454468%)" offset="0.46875"/><stop stop-opacity="1" stop-color="rgb(31.689453%, 74.816895%, 81.231689%)" offset="0.476562"/><stop stop-opacity="1" stop-color="rgb(31.57959%, 74.482727%, 81.007385%)" offset="0.484375"/><stop stop-opacity="1" stop-color="rgb(31.471252%, 74.14856%, 80.784607%)" offset="0.492187"/><stop stop-opacity="1" stop-color="rgb(31.361389%, 73.814392%, 80.560303%)" offset="0.5"/><stop stop-opacity="1" stop-color="rgb(31.251526%, 73.480225%, 80.337524%)" offset="0.507812"/><stop stop-opacity="1" stop-color="rgb(31.143188%, 73.144531%, 80.11322%)" offset="0.515625"/><stop stop-opacity="1" stop-color="rgb(31.033325%, 72.810364%, 79.890442%)" offset="0.523437"/><stop stop-opacity="1" stop-color="rgb(30.923462%, 72.476196%, 79.666138%)" offset="0.53125"/><stop stop-opacity="1" stop-color="rgb(30.813599%, 72.142029%, 79.443359%)" offset="0.539062"/><stop stop-opacity="1" stop-color="rgb(30.705261%, 71.807861%, 79.219055%)" offset="0.546875"/><stop stop-opacity="1" stop-color="rgb(30.595398%, 71.472168%, 78.996277%)" offset="0.554688"/><stop stop-opacity="1" stop-color="rgb(30.485535%, 71.138%, 78.773499%)" offset="0.5625"/><stop stop-opacity="1" stop-color="rgb(30.377197%, 70.803833%, 78.549194%)" offset="0.570312"/><stop stop-opacity="1" stop-color="rgb(30.267334%, 70.469666%, 78.326416%)" offset="0.578125"/><stop stop-opacity="1" stop-color="rgb(30.157471%, 70.135498%, 78.102112%)" offset="0.585938"/><stop stop-opacity="1" stop-color="rgb(30.049133%, 69.799805%, 77.879333%)" offset="0.59375"/><stop stop-opacity="1" stop-color="rgb(29.93927%, 69.465637%, 77.655029%)" offset="0.601562"/><stop stop-opacity="1" stop-color="rgb(29.829407%, 69.13147%, 77.432251%)" offset="0.609375"/><stop stop-opacity="1" stop-color="rgb(29.721069%, 68.797302%, 77.207947%)" offset="0.617188"/><stop stop-opacity="1" stop-color="rgb(29.611206%, 68.463135%, 76.985168%)" offset="0.625"/><stop stop-opacity="1" stop-color="rgb(29.501343%, 68.127441%, 76.760864%)" offset="0.632812"/><stop stop-opacity="1" stop-color="rgb(29.393005%, 67.793274%, 76.538086%)" offset="0.640625"/><stop stop-opacity="1" stop-color="rgb(29.283142%, 67.459106%, 76.313782%)" offset="0.648437"/><stop stop-opacity="1" stop-color="rgb(29.173279%, 67.124939%, 76.091003%)" offset="0.65625"/><stop stop-opacity="1" stop-color="rgb(29.063416%, 66.790771%, 75.868225%)" offset="0.664062"/><stop stop-opacity="1" stop-color="rgb(28.955078%, 66.455078%, 75.643921%)" offset="0.671875"/><stop stop-opacity="1" stop-color="rgb(28.845215%, 66.120911%, 75.421143%)" offset="0.679688"/><stop stop-opacity="1" stop-color="rgb(28.735352%, 65.786743%, 75.196838%)" offset="0.6875"/><stop stop-opacity="1" stop-color="rgb(28.627014%, 65.452576%, 74.97406%)" offset="0.695312"/><stop stop-opacity="1" stop-color="rgb(28.517151%, 65.118408%, 74.749756%)" offset="0.703125"/><stop stop-opacity="1" stop-color="rgb(28.407288%, 64.782715%, 74.526978%)" offset="0.710938"/><stop stop-opacity="1" stop-color="rgb(28.29895%, 64.448547%, 74.302673%)" offset="0.71875"/><stop stop-opacity="1" stop-color="rgb(28.189087%, 64.11438%, 74.079895%)" offset="0.726562"/><stop stop-opacity="1" stop-color="rgb(28.079224%, 63.780212%, 73.855591%)" offset="0.734375"/><stop stop-opacity="1" stop-color="rgb(27.970886%, 63.446045%, 73.632812%)" offset="0.742188"/><stop stop-opacity="1" stop-color="rgb(27.861023%, 63.110352%, 73.408508%)" offset="0.75"/><stop stop-opacity="1" stop-color="rgb(27.75116%, 62.776184%, 73.18573%)" offset="0.757812"/><stop stop-opacity="1" stop-color="rgb(27.641296%, 62.442017%, 72.962952%)" offset="0.765625"/><stop stop-opacity="1" stop-color="rgb(27.532959%, 62.107849%, 72.738647%)" offset="0.773438"/><stop stop-opacity="1" stop-color="rgb(27.423096%, 61.773682%, 72.515869%)" offset="0.78125"/><stop stop-opacity="1" stop-color="rgb(27.313232%, 61.437988%, 72.291565%)" offset="0.789062"/><stop stop-opacity="1" stop-color="rgb(27.204895%, 61.103821%, 72.068787%)" offset="0.796875"/><stop stop-opacity="1" stop-color="rgb(27.095032%, 60.769653%, 71.844482%)" offset="0.804688"/><stop stop-opacity="1" stop-color="rgb(26.985168%, 60.435486%, 71.621704%)" offset="0.8125"/><stop stop-opacity="1" stop-color="rgb(26.876831%, 60.101318%, 71.3974%)" offset="0.820312"/><stop stop-opacity="1" stop-color="rgb(26.766968%, 59.765625%, 71.174622%)" offset="0.828125"/><stop stop-opacity="1" stop-color="rgb(26.657104%, 59.431458%, 70.950317%)" offset="0.835938"/><stop stop-opacity="1" stop-color="rgb(26.548767%, 59.09729%, 70.727539%)" offset="0.84375"/><stop stop-opacity="1" stop-color="rgb(26.438904%, 58.763123%, 70.503235%)" offset="0.851562"/><stop stop-opacity="1" stop-color="rgb(26.329041%, 58.428955%, 70.280457%)" offset="0.859375"/><stop stop-opacity="1" stop-color="rgb(26.220703%, 58.093262%, 70.057678%)" offset="0.867188"/><stop stop-opacity="1" stop-color="rgb(26.11084%, 57.759094%, 69.833374%)" offset="0.875"/><stop stop-opacity="1" stop-color="rgb(26.000977%, 57.424927%, 69.610596%)" offset="0.882812"/><stop stop-opacity="1" stop-color="rgb(25.891113%, 57.090759%, 69.386292%)" offset="0.890625"/><stop stop-opacity="1" stop-color="rgb(25.782776%, 56.756592%, 69.163513%)" offset="0.898438"/><stop stop-opacity="1" stop-color="rgb(25.672913%, 56.420898%, 68.939209%)" offset="0.90625"/><stop stop-opacity="1" stop-color="rgb(25.563049%, 56.086731%, 68.716431%)" offset="0.914062"/><stop stop-opacity="1" stop-color="rgb(25.454712%, 55.752563%, 68.492126%)" offset="0.921875"/><stop stop-opacity="1" stop-color="rgb(25.344849%, 55.418396%, 68.269348%)" offset="0.929688"/><stop stop-opacity="1" stop-color="rgb(25.234985%, 55.084229%, 68.045044%)" offset="0.9375"/><stop stop-opacity="1" stop-color="rgb(25.126648%, 54.748535%, 67.822266%)" offset="0.945312"/><stop stop-opacity="1" stop-color="rgb(25.016785%, 54.414368%, 67.597961%)" offset="0.953125"/><stop stop-opacity="1" stop-color="rgb(24.906921%, 54.0802%, 67.375183%)" offset="0.960938"/><stop stop-opacity="1" stop-color="rgb(24.798584%, 53.746033%, 67.152405%)" offset="0.96875"/><stop stop-opacity="1" stop-color="rgb(24.688721%, 53.411865%, 66.928101%)" offset="0.976562"/><stop stop-opacity="1" stop-color="rgb(24.578857%, 53.077698%, 66.705322%)" offset="0.984375"/><stop stop-opacity="1" stop-color="rgb(24.468994%, 52.742004%, 66.481018%)" offset="0.992187"/><stop stop-opacity="1" stop-color="rgb(24.360657%, 52.407837%, 66.25824%)" offset="1"/></linearGradient></defs><g clip-path="url(#e725417d09)"><path fill="#ffffff" d="M 0 0.0585938 L 224.878906 0.0585938 L 224.878906 224.941406 L 0 224.941406 Z M 0 0.0585938 " fill-opacity="1" fill-rule="nonzero"/><path fill="#ffffff" d="M 0 0.0585938 L 224.878906 0.0585938 L 224.878906 224.941406 L 0 224.941406 Z M 0 0.0585938 " fill-opacity="1" fill-rule="nonzero"/></g><g clip-path="url(#d803822730)"><g clip-path="url(#421764cdfb)"><path fill="url(#6633661308)" d="M 84.949219 81.902344 L 84.949219 128.355469 L 139.667969 128.355469 L 139.667969 81.902344 Z M 84.949219 81.902344 " fill-rule="nonzero"/></g></g></svg>