<svg xmlns="http://www.w3.org/2000/svg" xmlns:xlink="http://www.w3.org/1999/xlink" width="87" zoomAndPan="magnify" viewBox="0 0 65.25 52.499999" height="70" preserveAspectRatio="xMidYMid meet" version="1.0"><defs><clipPath id="d718ca7f09"><path d="M 0 0.0507812 L 64.507812 0.0507812 L 64.507812 51.953125 L 0 51.953125 Z M 0 0.0507812 " clip-rule="nonzero"/></clipPath><clipPath id="5c220c97dd"><path d="M 9.460938 5.148438 L 63.585938 5.148438 L 63.585938 51.121094 L 9.460938 51.121094 Z M 9.460938 5.148438 " clip-rule="nonzero"/></clipPath><clipPath id="966c7bcd23"><path d="M 63.839844 25.675781 L 63.839844 24.59375 L 62.769531 24.476562 C 62.480469 24.449219 59.386719 24.136719 55.378906 24.738281 L 55.378906 16.863281 L 54.023438 17.039062 C 51.777344 17.328125 49.695312 17.757812 47.769531 18.316406 C 45.675781 13.875 42.21875 9.683594 37.410156 5.785156 L 36.652344 5.171875 L 35.894531 5.785156 C 31.085938 9.683594 27.625 13.875 25.535156 18.316406 C 23.609375 17.757812 21.527344 17.328125 19.28125 17.039062 L 17.921875 16.863281 L 17.921875 24.738281 C 13.914062 24.136719 10.824219 24.449219 10.535156 24.476562 L 9.460938 24.59375 L 9.460938 25.675781 C 9.460938 34.53125 11.839844 41.273438 16.539062 45.71875 C 20.425781 49.394531 25.773438 51.3125 32.082031 51.3125 C 32.578125 51.3125 33.082031 51.300781 33.59375 51.277344 L 35.324219 51.277344 L 34.980469 49.792969 C 34.125 46.097656 32.710938 37.164062 36.652344 29.882812 C 40.59375 37.164062 39.175781 46.097656 38.324219 49.792969 L 37.980469 51.277344 L 39.707031 51.277344 C 40.21875 51.300781 40.722656 51.3125 41.21875 51.3125 C 47.527344 51.3125 52.875 49.394531 56.761719 45.71875 C 61.460938 41.273438 63.839844 34.53125 63.839844 25.675781 Z M 52.976562 19.621094 L 52.976562 25.199219 C 52.003906 25.425781 51 25.707031 49.992188 26.066406 C 49.777344 24.191406 49.34375 22.351562 48.695312 20.550781 C 50.035156 20.175781 51.460938 19.863281 52.976562 19.621094 Z M 20.328125 19.621094 C 21.839844 19.863281 23.265625 20.175781 24.605469 20.554688 C 23.957031 22.355469 23.523438 24.195312 23.3125 26.066406 C 22.304688 25.707031 21.300781 25.425781 20.328125 25.199219 Z M 18.191406 43.972656 C 14.1875 40.1875 12.070312 34.414062 11.882812 26.808594 C 13.128906 26.769531 15.34375 26.789062 17.921875 27.21875 L 17.921875 34.359375 C 17.921875 39.820312 23.332031 45.28125 28.660156 48.6875 C 25.140625 48.222656 21.320312 46.933594 18.191406 43.972656 Z M 20.328125 34.363281 L 20.328125 27.726562 C 21.257812 27.964844 22.210938 28.261719 23.160156 28.632812 C 23.113281 35.855469 26.234375 42.019531 28.972656 46.027344 C 24.269531 42.769531 20.328125 38.175781 20.328125 34.363281 Z M 31.878906 45.914062 C 29.324219 42.472656 25.890625 36.613281 25.585938 29.746094 C 28.054688 31.074219 30.371094 32.992188 32.121094 35.746094 C 31.441406 39.429688 31.542969 43.027344 31.878906 45.914062 Z M 32.882812 32.667969 C 30.792969 30.0625 28.25 28.261719 25.632812 27.023438 C 25.792969 25.074219 26.214844 23.164062 26.898438 21.292969 C 30.5625 22.636719 33.457031 24.5625 35.550781 27.058594 C 34.351562 28.84375 33.488281 30.746094 32.882812 32.667969 Z M 36.652344 24.675781 C 34.390625 22.285156 31.445312 20.414062 27.84375 19.078125 C 29.679688 15.289062 32.621094 11.683594 36.652344 8.277344 C 40.683594 11.683594 43.621094 15.289062 45.457031 19.078125 C 41.855469 20.414062 38.910156 22.285156 36.652344 24.675781 Z M 37.75 27.058594 C 39.847656 24.5625 42.742188 22.636719 46.402344 21.292969 C 47.085938 23.164062 47.507812 25.074219 47.667969 27.023438 C 45.050781 28.261719 42.507812 30.0625 40.421875 32.667969 C 39.8125 30.746094 38.949219 28.84375 37.75 27.058594 Z M 41.179688 35.746094 C 42.929688 32.992188 45.246094 31.074219 47.714844 29.746094 C 47.414062 36.617188 43.980469 42.472656 41.425781 45.914062 C 41.757812 43.027344 41.859375 39.429688 41.179688 35.746094 Z M 50.140625 28.632812 C 51.089844 28.261719 52.042969 27.964844 52.976562 27.726562 L 52.976562 34.363281 C 52.976562 38.175781 49.03125 42.769531 44.328125 46.027344 C 47.070312 42.019531 50.1875 35.855469 50.140625 28.632812 Z M 55.109375 43.972656 C 51.980469 46.933594 48.160156 48.222656 44.640625 48.6875 C 49.96875 45.28125 55.378906 39.824219 55.378906 34.359375 L 55.378906 27.21875 C 57.960938 26.789062 60.175781 26.769531 61.421875 26.808594 C 61.234375 34.414062 59.113281 40.1875 55.109375 43.972656 Z M 55.109375 43.972656 " clip-rule="nonzero"/></clipPath><linearGradient x1="3025" gradientTransform="matrix(0.0993836, 0, 0, 0.0993836, -263.984219, -242.059137)" y1="2487.629781" x2="3025" gradientUnits="userSpaceOnUse" y2="2949.983935" id="d6983c2100"><stop stop-opacity="1" stop-color="rgb(36.079407%, 88.238525%, 90.19928%)" offset="0"/><stop stop-opacity="1" stop-color="rgb(36.079407%, 88.238525%, 90.19928%)" offset="0.125"/><stop stop-opacity="1" stop-color="rgb(36.079407%, 88.238525%, 90.19928%)" offset="0.15625"/><stop stop-opacity="1" stop-color="rgb(36.044312%, 88.13324%, 90.129089%)" offset="0.164062"/><stop stop-opacity="1" stop-color="rgb(35.955811%, 87.861633%, 89.94751%)" offset="0.171875"/><stop stop-opacity="1" stop-color="rgb(35.845947%, 87.527466%, 89.723206%)" offset="0.179687"/><stop stop-opacity="1" stop-color="rgb(35.73761%, 87.193298%, 89.500427%)" offset="0.1875"/><stop stop-opacity="1" stop-color="rgb(35.627747%, 86.857605%, 89.276123%)" offset="0.195312"/><stop stop-opacity="1" stop-color="rgb(35.517883%, 86.523438%, 89.053345%)" offset="0.203125"/><stop stop-opacity="1" stop-color="rgb(35.40802%, 86.18927%, 88.829041%)" offset="0.210937"/><stop stop-opacity="1" stop-color="rgb(35.299683%, 85.855103%, 88.606262%)" offset="0.21875"/><stop stop-opacity="1" stop-color="rgb(35.189819%, 85.520935%, 88.381958%)" offset="0.226562"/><stop stop-opacity="1" stop-color="rgb(35.079956%, 85.185242%, 88.15918%)" offset="0.234375"/><stop stop-opacity="1" stop-color="rgb(34.971619%, 84.851074%, 87.936401%)" offset="0.242187"/><stop stop-opacity="1" stop-color="rgb(34.861755%, 84.516907%, 87.712097%)" offset="0.25"/><stop stop-opacity="1" stop-color="rgb(34.751892%, 84.182739%, 87.489319%)" offset="0.257812"/><stop stop-opacity="1" stop-color="rgb(34.643555%, 83.848572%, 87.265015%)" offset="0.265625"/><stop stop-opacity="1" stop-color="rgb(34.533691%, 83.512878%, 87.042236%)" offset="0.273438"/><stop stop-opacity="1" stop-color="rgb(34.423828%, 83.178711%, 86.817932%)" offset="0.28125"/><stop stop-opacity="1" stop-color="rgb(34.315491%, 82.844543%, 86.595154%)" offset="0.289062"/><stop stop-opacity="1" stop-color="rgb(34.205627%, 82.510376%, 86.37085%)" offset="0.296875"/><stop stop-opacity="1" stop-color="rgb(34.095764%, 82.176208%, 86.148071%)" offset="0.304688"/><stop stop-opacity="1" stop-color="rgb(33.987427%, 81.840515%, 85.923767%)" offset="0.3125"/><stop stop-opacity="1" stop-color="rgb(33.877563%, 81.506348%, 85.700989%)" offset="0.320312"/><stop stop-opacity="1" stop-color="rgb(33.7677%, 81.17218%, 85.476685%)" offset="0.328125"/><stop stop-opacity="1" stop-color="rgb(33.657837%, 80.838013%, 85.253906%)" offset="0.335938"/><stop stop-opacity="1" stop-color="rgb(33.5495%, 80.503845%, 85.031128%)" offset="0.34375"/><stop stop-opacity="1" stop-color="rgb(33.439636%, 80.168152%, 84.806824%)" offset="0.351562"/><stop stop-opacity="1" stop-color="rgb(33.329773%, 79.833984%, 84.584045%)" offset="0.359375"/><stop stop-opacity="1" stop-color="rgb(33.221436%, 79.499817%, 84.359741%)" offset="0.367188"/><stop stop-opacity="1" stop-color="rgb(33.111572%, 79.165649%, 84.136963%)" offset="0.375"/><stop stop-opacity="1" stop-color="rgb(33.001709%, 78.831482%, 83.912659%)" offset="0.382812"/><stop stop-opacity="1" stop-color="rgb(32.893372%, 78.497314%, 83.68988%)" offset="0.390625"/><stop stop-opacity="1" stop-color="rgb(32.783508%, 78.161621%, 83.465576%)" offset="0.398437"/><stop stop-opacity="1" stop-color="rgb(32.673645%, 77.827454%, 83.242798%)" offset="0.40625"/><stop stop-opacity="1" stop-color="rgb(32.565308%, 77.493286%, 83.018494%)" offset="0.414062"/><stop stop-opacity="1" stop-color="rgb(32.455444%, 77.159119%, 82.795715%)" offset="0.421875"/><stop stop-opacity="1" stop-color="rgb(32.345581%, 76.824951%, 82.571411%)" offset="0.429687"/><stop stop-opacity="1" stop-color="rgb(32.235718%, 76.489258%, 82.348633%)" offset="0.4375"/><stop stop-opacity="1" stop-color="rgb(32.12738%, 76.15509%, 82.124329%)" offset="0.445312"/><stop stop-opacity="1" stop-color="rgb(32.017517%, 75.820923%, 81.90155%)" offset="0.453125"/><stop stop-opacity="1" stop-color="rgb(31.907654%, 75.486755%, 81.678772%)" offset="0.460937"/><stop stop-opacity="1" stop-color="rgb(31.799316%, 75.152588%, 81.454468%)" offset="0.46875"/><stop stop-opacity="1" stop-color="rgb(31.689453%, 74.816895%, 81.231689%)" offset="0.476562"/><stop stop-opacity="1" stop-color="rgb(31.57959%, 74.482727%, 81.007385%)" offset="0.484375"/><stop stop-opacity="1" stop-color="rgb(31.471252%, 74.14856%, 80.784607%)" offset="0.492187"/><stop stop-opacity="1" stop-color="rgb(31.361389%, 73.814392%, 80.560303%)" offset="0.5"/><stop stop-opacity="1" stop-color="rgb(31.251526%, 73.480225%, 80.337524%)" offset="0.507812"/><stop stop-opacity="1" stop-color="rgb(31.143188%, 73.144531%, 80.11322%)" offset="0.515625"/><stop stop-opacity="1" stop-color="rgb(31.033325%, 72.810364%, 79.890442%)" offset="0.523438"/><stop stop-opacity="1" stop-color="rgb(30.923462%, 72.476196%, 79.666138%)" offset="0.53125"/><stop stop-opacity="1" stop-color="rgb(30.813599%, 72.142029%, 79.443359%)" offset="0.539062"/><stop stop-opacity="1" stop-color="rgb(30.705261%, 71.807861%, 79.219055%)" offset="0.546875"/><stop stop-opacity="1" stop-color="rgb(30.595398%, 71.472168%, 78.996277%)" offset="0.554687"/><stop stop-opacity="1" stop-color="rgb(30.485535%, 71.138%, 78.773499%)" offset="0.5625"/><stop stop-opacity="1" stop-color="rgb(30.377197%, 70.803833%, 78.549194%)" offset="0.570312"/><stop stop-opacity="1" stop-color="rgb(30.267334%, 70.469666%, 78.326416%)" offset="0.578125"/><stop stop-opacity="1" stop-color="rgb(30.157471%, 70.135498%, 78.102112%)" offset="0.585938"/><stop stop-opacity="1" stop-color="rgb(30.049133%, 69.799805%, 77.879333%)" offset="0.59375"/><stop stop-opacity="1" stop-color="rgb(29.93927%, 69.465637%, 77.655029%)" offset="0.601562"/><stop stop-opacity="1" stop-color="rgb(29.829407%, 69.13147%, 77.432251%)" offset="0.609375"/><stop stop-opacity="1" stop-color="rgb(29.721069%, 68.797302%, 77.207947%)" offset="0.617187"/><stop stop-opacity="1" stop-color="rgb(29.611206%, 68.463135%, 76.985168%)" offset="0.625"/><stop stop-opacity="1" stop-color="rgb(29.501343%, 68.127441%, 76.760864%)" offset="0.632812"/><stop stop-opacity="1" stop-color="rgb(29.393005%, 67.793274%, 76.538086%)" offset="0.640625"/><stop stop-opacity="1" stop-color="rgb(29.283142%, 67.459106%, 76.313782%)" offset="0.648437"/><stop stop-opacity="1" stop-color="rgb(29.173279%, 67.124939%, 76.091003%)" offset="0.65625"/><stop stop-opacity="1" stop-color="rgb(29.063416%, 66.790771%, 75.868225%)" offset="0.664062"/><stop stop-opacity="1" stop-color="rgb(28.955078%, 66.455078%, 75.643921%)" offset="0.671875"/><stop stop-opacity="1" stop-color="rgb(28.845215%, 66.120911%, 75.421143%)" offset="0.679688"/><stop stop-opacity="1" stop-color="rgb(28.735352%, 65.786743%, 75.196838%)" offset="0.6875"/><stop stop-opacity="1" stop-color="rgb(28.627014%, 65.452576%, 74.97406%)" offset="0.695312"/><stop stop-opacity="1" stop-color="rgb(28.517151%, 65.118408%, 74.749756%)" offset="0.703125"/><stop stop-opacity="1" stop-color="rgb(28.407288%, 64.782715%, 74.526978%)" offset="0.710937"/><stop stop-opacity="1" stop-color="rgb(28.29895%, 64.448547%, 74.302673%)" offset="0.71875"/><stop stop-opacity="1" stop-color="rgb(28.189087%, 64.11438%, 74.079895%)" offset="0.726562"/><stop stop-opacity="1" stop-color="rgb(28.079224%, 63.780212%, 73.855591%)" offset="0.734375"/><stop stop-opacity="1" stop-color="rgb(27.970886%, 63.446045%, 73.632812%)" offset="0.742188"/><stop stop-opacity="1" stop-color="rgb(27.861023%, 63.110352%, 73.408508%)" offset="0.75"/><stop stop-opacity="1" stop-color="rgb(27.75116%, 62.776184%, 73.18573%)" offset="0.757812"/><stop stop-opacity="1" stop-color="rgb(27.641296%, 62.442017%, 72.962952%)" offset="0.765625"/><stop stop-opacity="1" stop-color="rgb(27.532959%, 62.107849%, 72.738647%)" offset="0.773437"/><stop stop-opacity="1" stop-color="rgb(27.423096%, 61.773682%, 72.515869%)" offset="0.78125"/><stop stop-opacity="1" stop-color="rgb(27.313232%, 61.437988%, 72.291565%)" offset="0.789062"/><stop stop-opacity="1" stop-color="rgb(27.204895%, 61.103821%, 72.068787%)" offset="0.796875"/><stop stop-opacity="1" stop-color="rgb(27.095032%, 60.769653%, 71.844482%)" offset="0.804688"/><stop stop-opacity="1" stop-color="rgb(26.985168%, 60.435486%, 71.621704%)" offset="0.8125"/><stop stop-opacity="1" stop-color="rgb(26.876831%, 60.101318%, 71.3974%)" offset="0.820312"/><stop stop-opacity="1" stop-color="rgb(26.766968%, 59.765625%, 71.174622%)" offset="0.828125"/><stop stop-opacity="1" stop-color="rgb(26.657104%, 59.431458%, 70.950317%)" offset="0.835937"/><stop stop-opacity="1" stop-color="rgb(26.548767%, 59.09729%, 70.727539%)" offset="0.84375"/><stop stop-opacity="1" stop-color="rgb(26.438904%, 58.763123%, 70.503235%)" offset="0.851562"/><stop stop-opacity="1" stop-color="rgb(26.329041%, 58.428955%, 70.280457%)" offset="0.859375"/><stop stop-opacity="1" stop-color="rgb(26.220703%, 58.093262%, 70.057678%)" offset="0.867188"/><stop stop-opacity="1" stop-color="rgb(26.11084%, 57.759094%, 69.833374%)" offset="0.875"/><stop stop-opacity="1" stop-color="rgb(26.000977%, 57.424927%, 69.610596%)" offset="0.882812"/><stop stop-opacity="1" stop-color="rgb(25.891113%, 57.090759%, 69.386292%)" offset="0.890625"/><stop stop-opacity="1" stop-color="rgb(25.782776%, 56.756592%, 69.163513%)" offset="0.898437"/><stop stop-opacity="1" stop-color="rgb(25.672913%, 56.420898%, 68.939209%)" offset="0.90625"/><stop stop-opacity="1" stop-color="rgb(25.563049%, 56.086731%, 68.716431%)" offset="0.914063"/><stop stop-opacity="1" stop-color="rgb(25.454712%, 55.752563%, 68.492126%)" offset="0.921875"/><stop stop-opacity="1" stop-color="rgb(25.344849%, 55.418396%, 68.269348%)" offset="0.929688"/><stop stop-opacity="1" stop-color="rgb(25.234985%, 55.084229%, 68.045044%)" offset="0.9375"/><stop stop-opacity="1" stop-color="rgb(25.126648%, 54.748535%, 67.822266%)" offset="0.945312"/><stop stop-opacity="1" stop-color="rgb(25.016785%, 54.414368%, 67.597961%)" offset="0.953125"/><stop stop-opacity="1" stop-color="rgb(24.906921%, 54.0802%, 67.375183%)" offset="0.960937"/><stop stop-opacity="1" stop-color="rgb(24.798584%, 53.746033%, 67.152405%)" offset="0.96875"/><stop stop-opacity="1" stop-color="rgb(24.688721%, 53.411865%, 66.928101%)" offset="0.976563"/><stop stop-opacity="1" stop-color="rgb(24.578857%, 53.077698%, 66.705322%)" offset="0.984375"/><stop stop-opacity="1" stop-color="rgb(24.468994%, 52.742004%, 66.481018%)" offset="0.992188"/><stop stop-opacity="1" stop-color="rgb(24.360657%, 52.407837%, 66.25824%)" offset="1"/></linearGradient></defs><g clip-path="url(#5c220c97dd)"><g clip-path="url(#966c7bcd23)"><path fill="url(#d6983c2100)" d="M 9.460938 5.171875 L 9.460938 51.121094 L 63.585938 51.121094 L 63.585938 5.171875 Z M 9.460938 5.171875 " fill-rule="nonzero"/></g></g></svg>